<svg width="32" height="32" viewBox="0 0 32 32" fill="none" xmlns="http://www.w3.org/2000/svg">
<path fill-rule="evenodd" clip-rule="evenodd" d="M7.2501 2.63249C7.13288 2.48213 6.98505 2.35838 6.81641 2.26944C6.64776 2.1805 6.46214 2.1284 6.27185 2.1166C6.08155 2.10479 5.89092 2.13355 5.71257 2.20096C5.53423 2.26837 5.37224 2.37289 5.23733 2.50762L3.18434 4.56061C2.22557 5.51938 1.87211 6.87816 2.29329 8.06975C4.03035 13.0063 6.85661 17.4884 10.5624 21.1835C14.2576 24.8892 18.7396 27.7155 23.6762 29.4526C24.8677 29.8717 26.2265 29.5203 27.1853 28.5616L29.2383 26.5086C29.3729 26.3735 29.4773 26.2114 29.5445 26.033C29.6117 25.8545 29.6403 25.6639 29.6283 25.4736C29.6163 25.2833 29.564 25.0977 29.4749 24.9291C29.3857 24.7606 29.2618 24.6129 29.1113 24.4958L24.5354 20.9359C24.3745 20.8108 24.1872 20.7238 23.9878 20.6817C23.7883 20.6395 23.5819 20.6432 23.3841 20.6925L19.041 21.7782C18.4609 21.9235 17.853 21.916 17.2766 21.7565C16.7002 21.597 16.175 21.291 15.752 20.8681L10.8799 15.9939C10.4571 15.5709 10.151 15.0457 9.99151 14.4693C9.83201 13.8929 9.82453 13.285 9.96979 12.7048L11.0555 8.36182C11.1048 8.164 11.1085 7.95758 11.0663 7.75813C11.0242 7.55868 10.9373 7.37141 10.8122 7.21045L7.2501 2.63249ZM3.74097 1.01338C4.08822 0.666356 4.50529 0.397138 4.96451 0.223587C5.42374 0.0500361 5.91462 -0.0238796 6.40458 0.00674339C6.89455 0.0373664 7.37241 0.171828 7.80645 0.401208C8.24049 0.630588 8.62079 0.949642 8.92213 1.3372L12.4799 5.91305C13.1339 6.75117 13.3646 7.8454 13.1064 8.87613L12.0207 13.2213C11.9642 13.4467 11.9671 13.683 12.029 13.907C12.091 14.131 12.2098 14.3352 12.3741 14.4996L17.2505 19.3718C17.4149 19.536 17.6191 19.6549 17.8431 19.7169C18.0671 19.7788 18.3034 19.7817 18.5289 19.7252L22.8719 18.6395C23.3813 18.5122 23.913 18.5025 24.4267 18.6111C24.9404 18.7196 25.4227 18.9435 25.8371 19.266L30.4129 22.8238C32.0574 24.1021 32.2098 26.534 30.7367 28.0049L28.6838 30.0579C27.217 31.5246 25.0222 32.1702 22.9756 31.4506C17.7403 29.6078 12.987 26.6102 9.06817 22.6798C5.13709 18.7613 2.13868 14.0079 0.295333 8.77242C-0.424273 6.72578 0.221256 4.53098 1.68798 3.06214L3.74097 1.01126V1.01338Z" fill="white"/>
</svg>
