<svg width="77" height="55" viewBox="0 0 77 55" fill="none" xmlns="http://www.w3.org/2000/svg">
<g filter="url(#filter0_d)">
<path d="M58.1083 29.1557C57.4537 28.4603 56.8792 27.3262 56.1269 27.1949C55.3746 27.0636 54.5453 28.0395 53.7042 28.4424C50.9971 29.7436 48.2901 31.0478 45.5445 32.2654C43.9156 32.9877 42.331 33.7248 40.9449 34.8917C40.5244 35.2469 39.6358 36.5331 39.2686 34.6858C39.1827 34.2471 38.6762 34.5127 38.3593 34.5604C37.0473 34.7574 35.7441 35.0469 34.4261 35.1902C31.7812 35.4886 29.8058 36.8107 28.4078 39.0311C26.2517 42.4572 23.1981 44.8089 19.644 46.5459C18.888 46.973 18.0024 47.1048 17.1561 46.9159C17.2153 45.8535 17.7485 44.988 18.2549 44.1076C19.0546 42.7467 20.032 41.4843 20.4881 39.9294C20.9027 38.5476 20.8494 37.2136 19.8543 36.1571C17.0732 33.2085 13.605 31.194 10.1397 29.2064C9.57105 28.8811 8.73881 29.2392 8.17016 28.7289C7.1829 27.8395 6.19565 26.9373 5.2084 26.022C4.68749 25.5729 4.27434 25.0107 4 24.3776C5.25578 24.0255 6.44937 24.3776 7.57187 24.6761C13.3414 26.3175 19.1523 27.8186 24.8063 29.854C28.0169 31.9252 31.1504 31.7879 34.2839 29.6212C35.6967 28.6453 37.219 27.8306 38.7058 26.9591C39.5944 26.4369 40.5095 25.9832 40.6961 24.7716C40.8087 24.0493 41.4899 23.9837 42.0793 23.8762C42.3903 23.8762 42.719 24.0344 42.9915 23.7509C44.1762 23.5688 44.9107 22.763 45.5268 21.814C47.3245 20.4442 48.5803 18.6625 49.7532 16.4421C48.2325 16.8254 46.7785 17.4392 45.4409 18.2626C43.3351 18.8594 41.7831 20.4322 39.7721 21.6469C39.8698 20.6083 40.3141 19.9905 40.7791 19.3728C42.7664 16.7435 45.2424 14.6425 47.8873 12.7354C48.835 12.049 49.072 11.3686 48.3463 10.3986C47.1261 8.77808 46.2465 6.9546 45.3431 5.14604C45.0707 4.04181 44.7508 2.94653 44.5375 1.83036C44.3243 0.764922 44.7064 0.150132 45.8999 0.0755219C48.8202 -0.109512 51.702 0.0038963 54.5186 0.887283C55.0162 1.04247 55.4783 1.36777 55.8929 0.657483C56.2187 0.0964131 56.4142 0.657483 56.6096 0.875345C59.0797 3.79709 61.9408 6.44128 62.9656 10.3628C63.1788 11.1835 63.8896 11.5834 64.6123 11.9595C67.5571 13.4833 70.1874 15.5575 72.3632 18.0715C72.9556 18.7669 72.9556 18.7759 73 19.8115C70.287 17.794 67.2246 16.648 64.0229 15.8064C63.3654 15.6303 63.0485 15.6213 63.0396 16.4719C62.9982 19.704 61.4521 22.2617 59.213 24.4015C58.4074 25.1685 58.4489 25.6967 59.0264 26.4906C59.604 27.2844 60.2556 28.1768 60.4155 29.2452C60.4629 29.5645 60.7857 29.9316 60.4155 30.2002C60.0453 30.4688 59.6691 30.2689 59.3374 30.0241L58.1083 29.1557Z" fill="#0D2B40"/>
</g>
<defs>
<filter id="filter0_d" x="0" y="0" width="77" height="55" filterUnits="userSpaceOnUse" color-interpolation-filters="sRGB">
<feFlood flood-opacity="0" result="BackgroundImageFix"/>
<feColorMatrix in="SourceAlpha" type="matrix" values="0 0 0 0 0 0 0 0 0 0 0 0 0 0 0 0 0 0 127 0"/>
<feOffset dy="4"/>
<feGaussianBlur stdDeviation="2"/>
<feColorMatrix type="matrix" values="0 0 0 0 0 0 0 0 0 0 0 0 0 0 0 0 0 0 0.25 0"/>
<feBlend mode="normal" in2="BackgroundImageFix" result="effect1_dropShadow"/>
<feBlend mode="normal" in="SourceGraphic" in2="effect1_dropShadow" result="shape"/>
</filter>
</defs>
</svg>
